<?xml version="1.0" encoding="UTF-8" standalone="no"?>
<!DOCTYPE svg PUBLIC "-//W3C//DTD SVG 1.1//EN" "http://www.w3.org/Graphics/SVG/1.1/DTD/svg11.dtd">
<svg xmlns="http://www.w3.org/2000/svg" version="1.1" viewBox="0.00 0.00 88.00 22.00">
<g stroke-width="2.00" fill="none" stroke-linecap="butt">
<path stroke="#d4d0fa" vector-effect="non-scaling-stroke" d="
  M 10.23 17.34
  Q 7.52 14.53 4.48 11.66
  C 0.23 7.64 6.42 2.12 10.40 7.03
  A 0.50 0.50 0.0 0 0 11.19 7.02
  Q 13.60 3.94 16.88 5.76
  Q 17.55 6.12 17.61 5.21
  A 0.77 0.77 0.0 0 0 17.12 4.45
  Q 13.66 3.10 11.20 5.39
  Q 10.78 5.77 10.36 5.40
  C 5.54 1.14 -0.94 7.55 3.28 11.97
  Q 6.51 15.35 10.42 18.85
  A 0.57 0.56 44.6 0 0 11.17 18.85
  C 13.59 16.69 19.10 12.25 19.43 9.25
  Q 19.46 9.01 19.42 8.77
  Q 19.36 8.26 18.75 8.43
  A 0.59 0.59 0.0 0 0 18.34 8.88
  C 17.77 11.80 13.49 15.18 11.29 17.35
  Q 10.75 17.88 10.23 17.34"
/>
<path stroke="#d4d0fa" vector-effect="non-scaling-stroke" d="
  M 45.23 10.23
  L 45.23 5.26
  Q 45.23 4.53 44.51 4.39
  L 44.12 4.31
  Q 43.51 4.19 43.51 4.82
  L 43.50 16.95
  A 0.69 0.68 -65.3 0 0 43.66 17.39
  Q 44.11 17.94 44.54 17.52
  Q 45.23 16.84 46.11 17.23
  Q 48.11 18.10 49.77 16.83
  C 53.80 13.73 48.96 7.97 45.94 10.56
  Q 45.24 11.17 45.23 10.23"
/>
<path stroke="#d4d0fa" vector-effect="non-scaling-stroke" d="
  M 24.33 11.07
  A 0.34 0.34 0.0 0 1 23.99 10.73
  L 24.02 6.82
  A 0.34 0.34 0.0 0 0 23.71 6.47
  L 22.64 6.39
  A 0.34 0.34 0.0 0 0 22.27 6.73
  L 22.25 17.14
  A 0.34 0.34 0.0 0 0 22.60 17.48
  L 23.66 17.47
  A 0.34 0.34 0.0 0 0 23.99 17.13
  L 24.02 13.16
  A 0.34 0.34 0.0 0 1 24.36 12.82
  L 28.95 12.81
  A 0.34 0.34 0.0 0 1 29.29 13.15
  L 29.34 17.22
  A 0.34 0.34 0.0 0 0 29.70 17.56
  L 30.85 17.49
  A 0.34 0.34 0.0 0 0 31.17 17.15
  L 31.20 6.87
  A 0.34 0.34 0.0 0 0 30.90 6.53
  L 29.73 6.39
  A 0.34 0.34 0.0 0 0 29.35 6.73
  L 29.30 10.70
  A 0.34 0.34 0.0 0 1 28.97 11.03
  L 24.33 11.07"
/>
<path stroke="#d4d0fa" vector-effect="non-scaling-stroke" d="
  M 74.57 17.44
  Q 78.09 16.76 78.11 13.17
  L 78.13 7.05
  A 0.61 0.61 0.0 0 0 77.55 6.44
  L 77.03 6.42
  A 0.55 0.54 -89.0 0 0 76.47 6.97
  L 76.49 13.36
  Q 76.49 16.30 73.57 16.06
  Q 73.44 16.05 73.30 16.02
  Q 71.23 15.56 71.22 13.44
  L 71.21 7.15
  A 0.77 0.77 0.0 0 0 70.39 6.38
  L 69.97 6.41
  A 0.46 0.45 -1.4 0 0 69.54 6.85
  L 69.43 13.18
  Q 69.37 16.73 72.85 17.43
  Q 73.71 17.61 74.57 17.44"
/>
<path stroke="#d4d0fa" vector-effect="non-scaling-stroke" d="
  M 56.06 11.59
  Q 56.60 11.70 56.98 11.29
  Q 57.52 10.71 56.84 10.29
  Q 56.47 10.07 56.02 10.16
  Q 55.22 10.30 55.23 9.49
  L 55.24 7.69
  A 0.62 0.61 3.6 0 0 54.69 7.07
  L 54.28 7.03
  Q 53.52 6.95 53.52 7.72
  L 53.51 9.30
  A 0.83 0.82 84.0 0 1 52.86 10.11
  Q 52.41 10.21 52.30 10.64
  Q 52.14 11.29 52.76 11.53
  Q 53.02 11.63 53.19 11.82
  Q 53.52 12.19 53.50 12.68
  C 53.39 15.21 53.34 17.72 56.56 17.59
  A 0.55 0.53 14.5 0 0 57.00 17.34
  Q 57.22 16.98 57.06 16.67
  Q 56.81 16.22 56.31 16.11
  Q 55.13 15.86 55.18 14.58
  Q 55.22 13.28 55.33 12.13
  Q 55.39 11.44 56.06 11.59"
/>
<path stroke="#d4d0fa" vector-effect="non-scaling-stroke" d="
  M 9.92 13.05
  Q 9.33 12.15 8.42 11.46
  Q 8.23 11.31 8.01 11.41
  Q 7.59 11.60 7.84 12.38
  A 0.15 0.15 0.0 0 0 7.88 12.45
  L 10.19 14.74
  Q 10.67 15.22 11.14 14.74
  L 16.71 9.03
  A 0.37 0.37 0.0 0 0 16.70 8.50
  L 16.47 8.28
  Q 16.29 8.12 16.12 8.29
  L 11.19 13.19
  Q 10.47 13.89 9.92 13.05"
/>
<path stroke="#d4d0fa" vector-effect="non-scaling-stroke" d="
  M 39.94 16.85
  Q 40.43 17.59 41.37 17.65
  Q 41.92 17.68 41.95 17.13
  Q 41.98 16.41 41.41 15.95
  Q 40.95 15.58 40.96 15.00
  L 40.99 10.75
  Q 41.00 9.90 40.20 10.20
  Q 38.73 10.75 37.35 10.09
  A 1.63 1.61 -40.1 0 0 36.21 10.00
  C 30.11 11.69 34.07 20.36 39.22 16.71
  Q 39.65 16.40 39.94 16.85"
/>
<path stroke="#d4d0fa" vector-effect="non-scaling-stroke" d="
  M 60.77 11.62
  Q 61.44 11.44 62.22 11.73
  Q 62.75 11.93 63.00 11.42
  Q 63.40 10.60 61.10 10.10
  A 2.01 2.00 -59.2 0 0 59.39 10.54
  Q 58.48 11.31 58.48 12.59
  Q 58.49 13.25 59.07 13.57
  L 61.38 14.82
  Q 62.64 15.50 61.31 16.03
  Q 60.29 16.43 59.34 15.43
  A 0.44 0.44 0.0 0 0 58.58 15.68
  L 58.53 16.12
  Q 58.46 16.82 59.10 17.12
  Q 61.75 18.40 63.09 16.46
  A 1.93 1.92 28.7 0 0 62.25 13.59
  Q 61.35 13.22 60.57 12.62
  Q 59.63 11.91 60.77 11.62"
/>
<path stroke="#d4d0fa" vector-effect="non-scaling-stroke" d="
  M 82.77 16.16
  Q 81.88 16.27 81.08 15.52
  A 0.41 0.41 0.0 0 0 80.49 15.55
  L 80.27 15.80
  A 0.53 0.52 -46.3 0 0 80.28 16.52
  Q 81.84 18.12 83.86 17.29
  A 1.94 1.94 0.0 0 0 84.43 14.07
  Q 83.59 13.30 82.47 12.88
  Q 82.07 12.73 81.92 12.33
  Q 81.84 12.11 81.91 11.89
  Q 82.12 11.21 82.79 11.43
  C 83.29 11.59 83.77 11.84 84.31 11.72
  Q 85.06 11.55 84.38 10.61
  A 1.44 1.44 0.0 0 0 83.21 10.01
  Q 80.36 10.00 80.35 12.39
  A 1.45 1.45 0.0 0 0 81.28 13.76
  Q 82.30 14.16 83.12 14.76
  Q 84.67 15.93 82.77 16.16"
/>
<path stroke="#d4d0fa" vector-effect="non-scaling-stroke" d="
  M 49.56 13.84
  A 2.21 2.21 0.0 0 0 47.35 11.63
  A 2.21 2.21 0.0 0 0 45.14 13.84
  A 2.21 2.21 0.0 0 0 47.35 16.05
  A 2.21 2.21 0.0 0 0 49.56 13.84"
/>
<path stroke="#d4d0fa" vector-effect="non-scaling-stroke" d="
  M 39.25 13.85
  A 2.21 2.21 0.0 0 0 37.04 11.64
  A 2.21 2.21 0.0 0 0 34.83 13.85
  A 2.21 2.21 0.0 0 0 37.04 16.06
  A 2.21 2.21 0.0 0 0 39.25 13.85"
/>
</g>
<path fill="#ffffff" d="
  M 0.00 0.00
  L 88.00 0.00
  L 88.00 22.00
  L 0.00 22.00
  L 0.00 0.00
  Z
  M 10.23 17.34
  Q 7.52 14.53 4.48 11.66
  C 0.23 7.64 6.42 2.12 10.40 7.03
  A 0.50 0.50 0.0 0 0 11.19 7.02
  Q 13.60 3.94 16.88 5.76
  Q 17.55 6.12 17.61 5.21
  A 0.77 0.77 0.0 0 0 17.12 4.45
  Q 13.66 3.10 11.20 5.39
  Q 10.78 5.77 10.36 5.40
  C 5.54 1.14 -0.94 7.55 3.28 11.97
  Q 6.51 15.35 10.42 18.85
  A 0.57 0.56 44.6 0 0 11.17 18.85
  C 13.59 16.69 19.10 12.25 19.43 9.25
  Q 19.46 9.01 19.42 8.77
  Q 19.36 8.26 18.75 8.43
  A 0.59 0.59 0.0 0 0 18.34 8.88
  C 17.77 11.80 13.49 15.18 11.29 17.35
  Q 10.75 17.88 10.23 17.34
  Z
  M 45.23 10.23
  L 45.23 5.26
  Q 45.23 4.53 44.51 4.39
  L 44.12 4.31
  Q 43.51 4.19 43.51 4.82
  L 43.50 16.95
  A 0.69 0.68 -65.3 0 0 43.66 17.39
  Q 44.11 17.94 44.54 17.52
  Q 45.23 16.84 46.11 17.23
  Q 48.11 18.10 49.77 16.83
  C 53.80 13.73 48.96 7.97 45.94 10.56
  Q 45.24 11.17 45.23 10.23
  Z
  M 24.33 11.07
  A 0.34 0.34 0.0 0 1 23.99 10.73
  L 24.02 6.82
  A 0.34 0.34 0.0 0 0 23.71 6.47
  L 22.64 6.39
  A 0.34 0.34 0.0 0 0 22.27 6.73
  L 22.25 17.14
  A 0.34 0.34 0.0 0 0 22.60 17.48
  L 23.66 17.47
  A 0.34 0.34 0.0 0 0 23.99 17.13
  L 24.02 13.16
  A 0.34 0.34 0.0 0 1 24.36 12.82
  L 28.95 12.81
  A 0.34 0.34 0.0 0 1 29.29 13.15
  L 29.34 17.22
  A 0.34 0.34 0.0 0 0 29.70 17.56
  L 30.85 17.49
  A 0.34 0.34 0.0 0 0 31.17 17.15
  L 31.20 6.87
  A 0.34 0.34 0.0 0 0 30.90 6.53
  L 29.73 6.39
  A 0.34 0.34 0.0 0 0 29.35 6.73
  L 29.30 10.70
  A 0.34 0.34 0.0 0 1 28.97 11.03
  L 24.33 11.07
  Z
  M 74.57 17.44
  Q 78.09 16.76 78.11 13.17
  L 78.13 7.05
  A 0.61 0.61 0.0 0 0 77.55 6.44
  L 77.03 6.42
  A 0.55 0.54 -89.0 0 0 76.47 6.97
  L 76.49 13.36
  Q 76.49 16.30 73.57 16.06
  Q 73.44 16.05 73.30 16.02
  Q 71.23 15.56 71.22 13.44
  L 71.21 7.15
  A 0.77 0.77 0.0 0 0 70.39 6.38
  L 69.97 6.41
  A 0.46 0.45 -1.4 0 0 69.54 6.85
  L 69.43 13.18
  Q 69.37 16.73 72.85 17.43
  Q 73.71 17.61 74.57 17.44
  Z
  M 56.06 11.59
  Q 56.60 11.70 56.98 11.29
  Q 57.52 10.71 56.84 10.29
  Q 56.47 10.07 56.02 10.16
  Q 55.22 10.30 55.23 9.49
  L 55.24 7.69
  A 0.62 0.61 3.6 0 0 54.69 7.07
  L 54.28 7.03
  Q 53.52 6.95 53.52 7.72
  L 53.51 9.30
  A 0.83 0.82 84.0 0 1 52.86 10.11
  Q 52.41 10.21 52.30 10.64
  Q 52.14 11.29 52.76 11.53
  Q 53.02 11.63 53.19 11.82
  Q 53.52 12.19 53.50 12.68
  C 53.39 15.21 53.34 17.72 56.56 17.59
  A 0.55 0.53 14.5 0 0 57.00 17.34
  Q 57.22 16.98 57.06 16.67
  Q 56.81 16.22 56.31 16.11
  Q 55.13 15.86 55.18 14.58
  Q 55.22 13.28 55.33 12.13
  Q 55.39 11.44 56.06 11.59
  Z
  M 9.92 13.05
  Q 9.33 12.15 8.42 11.46
  Q 8.23 11.31 8.01 11.41
  Q 7.59 11.60 7.84 12.38
  A 0.15 0.15 0.0 0 0 7.88 12.45
  L 10.19 14.74
  Q 10.67 15.22 11.14 14.74
  L 16.71 9.03
  A 0.37 0.37 0.0 0 0 16.70 8.50
  L 16.47 8.28
  Q 16.29 8.12 16.12 8.29
  L 11.19 13.19
  Q 10.47 13.89 9.92 13.05
  Z
  M 39.94 16.85
  Q 40.43 17.59 41.37 17.65
  Q 41.92 17.68 41.95 17.13
  Q 41.98 16.41 41.41 15.95
  Q 40.95 15.58 40.96 15.00
  L 40.99 10.75
  Q 41.00 9.90 40.20 10.20
  Q 38.73 10.75 37.35 10.09
  A 1.63 1.61 -40.1 0 0 36.21 10.00
  C 30.11 11.69 34.07 20.36 39.22 16.71
  Q 39.65 16.40 39.94 16.85
  Z
  M 60.77 11.62
  Q 61.44 11.44 62.22 11.73
  Q 62.75 11.93 63.00 11.42
  Q 63.40 10.60 61.10 10.10
  A 2.01 2.00 -59.2 0 0 59.39 10.54
  Q 58.48 11.31 58.48 12.59
  Q 58.49 13.25 59.07 13.57
  L 61.38 14.82
  Q 62.64 15.50 61.31 16.03
  Q 60.29 16.43 59.34 15.43
  A 0.44 0.44 0.0 0 0 58.58 15.68
  L 58.53 16.12
  Q 58.46 16.82 59.10 17.12
  Q 61.75 18.40 63.09 16.46
  A 1.93 1.92 28.7 0 0 62.25 13.59
  Q 61.35 13.22 60.57 12.62
  Q 59.63 11.91 60.77 11.62
  Z
  M 82.77 16.16
  Q 81.88 16.27 81.08 15.52
  A 0.41 0.41 0.0 0 0 80.49 15.55
  L 80.27 15.80
  A 0.53 0.52 -46.3 0 0 80.28 16.52
  Q 81.84 18.12 83.86 17.29
  A 1.94 1.94 0.0 0 0 84.43 14.07
  Q 83.59 13.30 82.47 12.88
  Q 82.07 12.73 81.92 12.33
  Q 81.84 12.11 81.91 11.89
  Q 82.12 11.21 82.79 11.43
  C 83.29 11.59 83.77 11.84 84.31 11.72
  Q 85.06 11.55 84.38 10.61
  A 1.44 1.44 0.0 0 0 83.21 10.01
  Q 80.36 10.00 80.35 12.39
  A 1.45 1.45 0.0 0 0 81.28 13.76
  Q 82.30 14.16 83.12 14.76
  Q 84.67 15.93 82.77 16.16
  Z"
/>
<path fill="#a9a0f5" d="
  M 11.29 17.35
  C 13.49 15.18 17.77 11.80 18.34 8.88
  A 0.59 0.59 0.0 0 1 18.75 8.43
  Q 19.36 8.26 19.42 8.77
  Q 19.46 9.01 19.43 9.25
  C 19.10 12.25 13.59 16.69 11.17 18.85
  A 0.57 0.56 44.6 0 1 10.42 18.85
  Q 6.51 15.35 3.28 11.97
  C -0.94 7.55 5.54 1.14 10.36 5.40
  Q 10.78 5.77 11.20 5.39
  Q 13.66 3.10 17.12 4.45
  A 0.77 0.77 0.0 0 1 17.61 5.21
  Q 17.55 6.12 16.88 5.76
  Q 13.60 3.94 11.19 7.02
  A 0.50 0.50 0.0 0 1 10.40 7.03
  C 6.42 2.12 0.23 7.64 4.48 11.66
  Q 7.52 14.53 10.23 17.34
  Q 10.75 17.88 11.29 17.35
  Z"
/>
<path fill="#a9a0f5" d="
  M 45.94 10.56
  C 48.96 7.97 53.80 13.73 49.77 16.83
  Q 48.11 18.10 46.11 17.23
  Q 45.23 16.84 44.54 17.52
  Q 44.11 17.94 43.66 17.39
  A 0.69 0.68 -65.3 0 1 43.50 16.95
  L 43.51 4.82
  Q 43.51 4.19 44.12 4.31
  L 44.51 4.39
  Q 45.23 4.53 45.23 5.26
  L 45.23 10.23
  Q 45.24 11.17 45.94 10.56
  Z
  M 49.56 13.84
  A 2.21 2.21 0.0 0 0 47.35 11.63
  A 2.21 2.21 0.0 0 0 45.14 13.84
  A 2.21 2.21 0.0 0 0 47.35 16.05
  A 2.21 2.21 0.0 0 0 49.56 13.84
  Z"
/>
<path fill="#a9a0f5" d="
  M 24.33 11.07
  L 28.97 11.03
  A 0.34 0.34 0.0 0 0 29.30 10.70
  L 29.35 6.73
  A 0.34 0.34 0.0 0 1 29.73 6.39
  L 30.90 6.53
  A 0.34 0.34 0.0 0 1 31.20 6.87
  L 31.17 17.15
  A 0.34 0.34 0.0 0 1 30.85 17.49
  L 29.70 17.56
  A 0.34 0.34 0.0 0 1 29.34 17.22
  L 29.29 13.15
  A 0.34 0.34 0.0 0 0 28.95 12.81
  L 24.36 12.82
  A 0.34 0.34 0.0 0 0 24.02 13.16
  L 23.99 17.13
  A 0.34 0.34 0.0 0 1 23.66 17.47
  L 22.60 17.48
  A 0.34 0.34 0.0 0 1 22.25 17.14
  L 22.27 6.73
  A 0.34 0.34 0.0 0 1 22.64 6.39
  L 23.71 6.47
  A 0.34 0.34 0.0 0 1 24.02 6.82
  L 23.99 10.73
  A 0.34 0.34 0.0 0 0 24.33 11.07
  Z"
/>
<path fill="#a9a0f5" d="
  M 74.57 17.44
  Q 73.71 17.61 72.85 17.43
  Q 69.37 16.73 69.43 13.18
  L 69.54 6.85
  A 0.46 0.45 -1.4 0 1 69.97 6.41
  L 70.39 6.38
  A 0.77 0.77 0.0 0 1 71.21 7.15
  L 71.22 13.44
  Q 71.23 15.56 73.30 16.02
  Q 73.44 16.05 73.57 16.06
  Q 76.49 16.30 76.49 13.36
  L 76.47 6.97
  A 0.55 0.54 -89.0 0 1 77.03 6.42
  L 77.55 6.44
  A 0.61 0.61 0.0 0 1 78.13 7.05
  L 78.11 13.17
  Q 78.09 16.76 74.57 17.44
  Z"
/>
<path fill="#a9a0f5" d="
  M 55.33 12.13
  Q 55.22 13.28 55.18 14.58
  Q 55.13 15.86 56.31 16.11
  Q 56.81 16.22 57.06 16.67
  Q 57.22 16.98 57.00 17.34
  A 0.55 0.53 14.5 0 1 56.56 17.59
  C 53.34 17.72 53.39 15.21 53.50 12.68
  Q 53.52 12.19 53.19 11.82
  Q 53.02 11.63 52.76 11.53
  Q 52.14 11.29 52.30 10.64
  Q 52.41 10.21 52.86 10.11
  A 0.83 0.82 84.0 0 0 53.51 9.30
  L 53.52 7.72
  Q 53.52 6.95 54.28 7.03
  L 54.69 7.07
  A 0.62 0.61 3.6 0 1 55.24 7.69
  L 55.23 9.49
  Q 55.22 10.30 56.02 10.16
  Q 56.47 10.07 56.84 10.29
  Q 57.52 10.71 56.98 11.29
  Q 56.60 11.70 56.06 11.59
  Q 55.39 11.44 55.33 12.13
  Z"
/>
<path fill="#a9a0f5" d="
  M 11.19 13.19
  L 16.12 8.29
  Q 16.29 8.12 16.47 8.28
  L 16.70 8.50
  A 0.37 0.37 0.0 0 1 16.71 9.03
  L 11.14 14.74
  Q 10.67 15.22 10.19 14.74
  L 7.88 12.45
  A 0.15 0.15 0.0 0 1 7.84 12.38
  Q 7.59 11.60 8.01 11.41
  Q 8.23 11.31 8.42 11.46
  Q 9.33 12.15 9.92 13.05
  Q 10.47 13.89 11.19 13.19
  Z"
/>
<path fill="#a9a0f5" d="
  M 39.22 16.71
  C 34.07 20.36 30.11 11.69 36.21 10.00
  A 1.63 1.61 -40.1 0 1 37.35 10.09
  Q 38.73 10.75 40.20 10.20
  Q 41.00 9.90 40.99 10.75
  L 40.96 15.00
  Q 40.95 15.58 41.41 15.95
  Q 41.98 16.41 41.95 17.13
  Q 41.92 17.68 41.37 17.65
  Q 40.43 17.59 39.94 16.85
  Q 39.65 16.40 39.22 16.71
  Z
  M 39.25 13.85
  A 2.21 2.21 0.0 0 0 37.04 11.64
  A 2.21 2.21 0.0 0 0 34.83 13.85
  A 2.21 2.21 0.0 0 0 37.04 16.06
  A 2.21 2.21 0.0 0 0 39.25 13.85
  Z"
/>
<path fill="#a9a0f5" d="
  M 60.77 11.62
  Q 59.63 11.91 60.57 12.62
  Q 61.35 13.22 62.25 13.59
  A 1.93 1.92 28.7 0 1 63.09 16.46
  Q 61.75 18.40 59.10 17.12
  Q 58.46 16.82 58.53 16.12
  L 58.58 15.68
  A 0.44 0.44 0.0 0 1 59.34 15.43
  Q 60.29 16.43 61.31 16.03
  Q 62.64 15.50 61.38 14.82
  L 59.07 13.57
  Q 58.49 13.25 58.48 12.59
  Q 58.48 11.31 59.39 10.54
  A 2.01 2.00 -59.2 0 1 61.10 10.10
  Q 63.40 10.60 63.00 11.42
  Q 62.75 11.93 62.22 11.73
  Q 61.44 11.44 60.77 11.62
  Z"
/>
<path fill="#a9a0f5" d="
  M 82.77 16.16
  Q 84.67 15.93 83.12 14.76
  Q 82.30 14.16 81.28 13.76
  A 1.45 1.45 0.0 0 1 80.35 12.39
  Q 80.36 10.00 83.21 10.01
  A 1.44 1.44 0.0 0 1 84.38 10.61
  Q 85.06 11.55 84.31 11.72
  C 83.77 11.84 83.29 11.59 82.79 11.43
  Q 82.12 11.21 81.91 11.89
  Q 81.84 12.11 81.92 12.33
  Q 82.07 12.73 82.47 12.88
  Q 83.59 13.30 84.43 14.07
  A 1.94 1.94 0.0 0 1 83.86 17.29
  Q 81.84 18.12 80.28 16.52
  A 0.53 0.52 -46.3 0 1 80.27 15.80
  L 80.49 15.55
  A 0.41 0.41 0.0 0 1 81.08 15.52
  Q 81.88 16.27 82.77 16.16
  Z"
/>
<circle fill="#ffffff" cx="37.04" cy="13.85" r="2.21"/>
<circle fill="#ffffff" cx="47.35" cy="13.84" r="2.21"/>
</svg>
